<?xml version="1.0" encoding="utf-8"?>
<!-- Generator: Adobe Illustrator 23.0.3, SVG Export Plug-In . SVG Version: 6.00 Build 0)  -->
<svg version="1.1"
	 id="svg2" xmlns:cc="http://creativecommons.org/ns#" xmlns:dc="http://purl.org/dc/elements/1.1/" xmlns:rdf="http://www.w3.org/1999/02/22-rdf-syntax-ns#" xmlns:svg="http://www.w3.org/2000/svg"
	 xmlns="http://www.w3.org/2000/svg" xmlns:xlink="http://www.w3.org/1999/xlink" x="0px" y="0px" viewBox="0 0 2400 1006.7"
	 style="enable-background:new 0 0 2400 1006.7;" xml:space="preserve">
<style type="text/css">
	.st0{display:none;}
	.st1{display:inline;}
	.st2{fill:#ED1C24;}
	.st3{fill:#A0A1A2;}
	.st4{fill:#4279BB;}
	.st5{fill:#5C5C60;}
	.st6{fill:#1CE783;}
</style>
<g id="g10" transform="matrix(1.3333333,0,0,-1.3333333,0,1006.6667)" class="st0">
	<g id="g12" transform="scale(0.1)" class="st1">
		<path id="path14" class="st2" d="M11364.5,5692h-600.9V2331.3c546.1-18.8,1089.9-46.3,1631.5-82.4v592.1
			c-342.6,22.9-686.1,42.2-1030.6,58.3V5692z M16140,5691.6h-660.1l-435.1-1008.5l-390.9,1008.5h-650.2l698.7-1802.1l-762.7-1767.9
			c211-20.6,421.4-42.5,631.6-65.7l443.6,1027.9l439.3-1133.1c228.8-29.4,457-60.1,684.8-92.6l1,0.4l-782.8,2018.9L16140,5691.6z
			 M8700.9,2360.7l600.9,0.1v1367h814.6v592.1h-814.6v774.3h1076.6v597.4H8700.9V2360.7z M6456.9,5094.2h628.9V2325.5
			c200,7.6,400.3,13.8,600.9,19v2749.8h628.9v597.4H6456.9V5094.2z M4402.5,2153.4c553.9,50.3,1110.3,91.8,1669.2,124v592.2
			c-357.1-20.6-713.2-45.1-1068.3-73v896.4c233,2.3,539.7,9.4,811.5,6.1v592.1c-217.1,0.5-566.1-3-811.5-6.2v809.2h1068.3v597.4
			H4402.5V2153.4z M3223.7,3522.2l-782.7,2169.5H1870V1858c199.9,28.5,400.2,55.7,600.9,81.8v2084.7l695.9-1999.1
			c218.9,25.4,438.1,49.4,657.9,72v3594.2h-600.9V3522.2z M12890.5,2213.2c200.6-15.4,400.9-31.8,601-49.6v3528.1h-601V2213.2"/>
	</g>
</g>
<g id="g14" class="st0">
	<g id="g20" transform="translate(454.043,446.2158)" class="st1">
		<path id="path22" class="st3" d="M1486.6-151.8c-116.4,0-210.7,94.4-210.7,210.7c0,116.3,94.3,210.7,210.7,210.7
			c116.3,0,210.7-94.3,210.7-210.7C1697.3-57.4,1603-151.8,1486.6-151.8 M1487.4,165.3c-58.3,0-105.6-47.3-105.6-105.6
			c0-58.3,47.3-105.6,105.6-105.6c58.3,0,105.6,47.3,105.6,105.6C1593,118,1545.7,165.3,1487.4,165.3"/>
	</g>
	<g id="g24" transform="translate(454.042,419.7305)" class="st1">
		<path id="path26" class="st4" d="M1486.6,2.6c-45.8,0-82.9,37-82.9,82.8c0,45.7,37.1,82.8,82.9,82.8s82.8-37.1,82.8-82.8
			C1569.5,39.6,1532.4,2.6,1486.6,2.6"/>
	</g>
	<g id="g28" transform="translate(365.0225,390.7393)" class="st1">
		<path id="path30" class="st3" d="M1145.8,171.6h118.6c-26.5,76.2-98.6,63.5-98.6,63.5c-58.3-1.1-85.6-48.7-85.6-48.7
			c-48.7-84.7,0-147.1,0-147.1c22.2-39.2,80.5-43.4,80.5-43.4c70.9,0,95.3,52.9,95.3,52.9H1366c-27.6-84.2-106.7-145.1-200.2-145.1
			c-116.3,0-210.6,94.4-210.6,210.7c0,116.3,94.3,210.7,210.6,210.7c116.4,0,210.7-94.4,210.7-210.7c0-7.9-0.5-15.6-1.3-23.3h-229.4
			V171.6z"/>
	</g>
	<g id="g32" transform="translate(165.8066,360.0996)" class="st1">
		<path id="path34" class="st5" d="M383.1,350.2H271v-160h-72.7v160h-115L82.9-62.4h115.4V91.1H271V-62.4h112.1V350.2z M896.5,352.1
			c115.5,0,209.6-96.1,209.5-211.6c0-118-94-209.7-209.5-209.8C781-69.4,722.1,15.6,707.5,49.9c0.1-51.4-50.6-112.2-109.9-112.3
			H406.4V350l178.2,0.1c71.9,0,123-62.2,123.1-115.6C724.2,268,781,352.2,896.5,352.1 M569.7,184.3c16.5,0,29.5,16.3,29.5,34.9
			c0,18.5-13,34.8-29.5,34.8H513v-69.7H569.7z M569.9,29.4c16.5,0,29.5,16.3,29.5,34.8c0,18.5-13,34.8-29.5,34.8h-56.7V29.4H569.9z
			 M645.4,140.6c12.9-1.7,34.6-16.5,42.2-26c-2.7,11.8-2.9,45.8,0.3,57.5C679.2,158.7,658.6,142.2,645.4,140.6 M791.6,140.6
			c0-58,47-105,105-105c58,0,105,46.9,105,105c0,57.9-47,105-105,105C838.6,245.5,791.6,198.5,791.6,140.6 M896.6,223.1
			c45.6,0,82.5-36.9,82.5-82.5C979,95,942.1,58,896.6,58C851,58,814,95,814,140.6C814,186.2,851,223.1,896.6,223.1"/>
	</g>
</g>
<g id="XMLID_2489_">
	<path id="XMLID_2490_" class="st6" d="M1374.8,758.9h123.5V247.7h-123.5V758.9z M1158,613.2c0,17.9-15.1,33-33,33h-71.8
		c-17.9,0-33-15.1-33-33c0-7.2,0-206.1,0-206.1H896.7v216.1c0,88.3,56.7,135,140,135h120.6c76.8,0,123.5-55.3,123.5-135V407.1
		h-123.5C1158,407.1,1158,606.7,1158,613.2z M1852.3,407.1c0,0,0,199.6,0,206.1c0,17.9-15.1,33-33,33h-71.8c-17.9,0-33-15.1-33-33
		c0-7.2,0-206.1,0-206.1h-123.5v216.1c0,88.3,56.7,135,140,135h120.6c76.8,0,123.5-55.3,123.5-135V407.1H1852.3z M669.1,407.1
		c0,0-63.9,0-79,0c-28,0-41.6,7.2-41.6,7.2V247.7H425v510.5h122.8V552.9c0-17.9,15.1-33,33-33h71.8c17.9,0,33,15.1,33,33v206.1
		h123.5V536.4C809.1,443,746.6,407.1,669.1,407.1z"/>
</g>
</svg>
