<?xml version="1.0" encoding="UTF-8" standalone="no"?>
<svg
   xmlns:dc="http://purl.org/dc/elements/1.1/"
   xmlns:cc="http://creativecommons.org/ns#"
   xmlns:rdf="http://www.w3.org/1999/02/22-rdf-syntax-ns#"
   xmlns:svg="http://www.w3.org/2000/svg"
   xmlns="http://www.w3.org/2000/svg"
   viewBox="0 0 2400 1006.6667"
   height="1006.6667"
   width="2400"
   xml:space="preserve"
   id="svg2"
   version="1.1"><metadata
     id="metadata8"><rdf:RDF><cc:Work
         rdf:about=""><dc:format>image/svg+xml</dc:format><dc:type
           rdf:resource="http://purl.org/dc/dcmitype/StillImage" /></cc:Work></rdf:RDF></metadata><defs
     id="defs6" /><g
     transform="matrix(1.3333333,0,0,-1.3333333,0,1006.6667)"
     id="g10"><g
       transform="scale(0.1)"
       id="g12"><path
         id="path14"
         style="fill:#ed1c24;fill-opacity:1;fill-rule:nonzero;stroke:none"
         d="m 11364.5,5691.98 h -600.9 v -3360.7 c 546.1,-18.79 1089.9,-46.34 1631.5,-82.45 v 592.09 c -342.6,22.85 -686.1,42.22 -1030.6,58.26 z m 4775.5,-0.34 h -660.1 l -435.1,-1008.51 -390.9,1008.51 h -650.2 l 698.7,-1802.07 -762.7,-1767.89 c 211,-20.58 421.4,-42.54 631.6,-65.74 l 443.6,1027.91 439.3,-1133.12 c 228.8,-29.42 457,-60.12 684.8,-92.63 l 1,0.39 -782.8,2018.91 z m -7439.13,-3330.99 600.93,0.13 v 1367.04 h 814.6 v 592.09 h -814.6 v 774.28 h 1076.6 v 597.42 H 8700.87 Z M 6456.88,5094.23 h 628.93 V 2325.45 c 199.96,7.55 400.33,13.77 600.91,19.02 v 2749.76 h 628.9 v 597.41 H 6456.88 Z M 4402.48,2153.36 c 553.85,50.33 1110.25,91.81 1669.18,124 v 592.16 c -357.11,-20.64 -713.21,-45.08 -1068.27,-73 v 896.41 c 232.97,2.32 539.74,9.43 811.51,6.05 v 592.14 c -217.12,0.53 -566.08,-3.03 -811.51,-6.17 v 809.24 h 1068.27 v 597.42 H 4402.48 Z M 3223.72,3522.19 2441.07,5691.64 h -571.1 V 1858.02 c 199.92,28.46 400.22,55.71 600.91,81.85 v 2084.71 l 695.91,-1999.11 c 218.88,25.38 438.15,49.42 657.85,72.02 V 5691.64 H 3223.72 Z M 12890.5,2213.18 c 200.6,-15.35 400.9,-31.82 601,-49.62 v 3528.08 h -601 V 2213.18" /></g></g></svg>