<?xml version="1.0" encoding="utf-8"?>
<!-- Generator: Adobe Illustrator 23.0.3, SVG Export Plug-In . SVG Version: 6.00 Build 0)  -->
<svg version="1.1"
	 id="svg2" xmlns:cc="http://creativecommons.org/ns#" xmlns:dc="http://purl.org/dc/elements/1.1/" xmlns:rdf="http://www.w3.org/1999/02/22-rdf-syntax-ns#" xmlns:svg="http://www.w3.org/2000/svg"
	 xmlns="http://www.w3.org/2000/svg" xmlns:xlink="http://www.w3.org/1999/xlink" x="0px" y="0px" viewBox="0 0 2400 1006.7"
	 style="enable-background:new 0 0 2400 1006.7;" xml:space="preserve">
<style type="text/css">
	.st0{display:none;}
	.st1{display:inline;}
	.st2{fill:#ED1C24;}
	.st3{fill:#A0A1A2;}
	.st4{fill:#4279BB;}
	.st5{fill:#5C5C60;}
	.st6{display:inline;fill:#1CE783;}
	.st7{fill-rule:evenodd;clip-rule:evenodd;fill:#FFFFFF;}
</style>
<g id="g10" transform="matrix(1.3333333,0,0,-1.3333333,0,1006.6667)" class="st0">
	<g id="g12" transform="scale(0.1)" class="st1">
		<path id="path14" class="st2" d="M11364.5,5692h-600.9V2331.3c546.1-18.8,1089.9-46.3,1631.5-82.4v592.1
			c-342.6,22.9-686.1,42.2-1030.6,58.3V5692z M16140,5691.6h-660.1l-435.1-1008.5l-390.9,1008.5h-650.2l698.7-1802.1l-762.7-1767.9
			c211-20.6,421.4-42.5,631.6-65.7l443.6,1027.9l439.3-1133.1c228.8-29.4,457-60.1,684.8-92.6l1,0.4l-782.8,2018.9L16140,5691.6z
			 M8700.9,2360.7l600.9,0.1v1367h814.6v592.1h-814.6v774.3h1076.6v597.4H8700.9V2360.7z M6456.9,5094.2h628.9V2325.5
			c200,7.6,400.3,13.8,600.9,19v2749.8h628.9v597.4H6456.9V5094.2z M4402.5,2153.4c553.9,50.3,1110.3,91.8,1669.2,124v592.2
			c-357.1-20.6-713.2-45.1-1068.3-73v896.4c233,2.3,539.7,9.4,811.5,6.1v592.1c-217.1,0.5-566.1-3-811.5-6.2v809.2h1068.3v597.4
			H4402.5V2153.4z M3223.7,3522.2l-782.7,2169.5H1870V1858c199.9,28.5,400.2,55.7,600.9,81.8v2084.7l695.9-1999.1
			c218.9,25.4,438.1,49.4,657.9,72v3594.2h-600.9V3522.2z M12890.5,2213.2c200.6-15.4,400.9-31.8,601-49.6v3528.1h-601V2213.2"/>
	</g>
</g>
<g id="g14" class="st0">
	<g id="g20" transform="translate(454.043,446.2158)" class="st1">
		<path id="path22" class="st3" d="M1486.6-151.8c-116.4,0-210.7,94.4-210.7,210.7c0,116.3,94.3,210.7,210.7,210.7
			c116.3,0,210.7-94.3,210.7-210.7C1697.3-57.4,1603-151.8,1486.6-151.8 M1487.4,165.3c-58.3,0-105.6-47.3-105.6-105.6
			c0-58.3,47.3-105.6,105.6-105.6c58.3,0,105.6,47.3,105.6,105.6C1593,118,1545.7,165.3,1487.4,165.3"/>
	</g>
	<g id="g24" transform="translate(454.042,419.7305)" class="st1">
		<path id="path26" class="st4" d="M1486.6,2.6c-45.8,0-82.9,37-82.9,82.8c0,45.7,37.1,82.8,82.9,82.8s82.8-37.1,82.8-82.8
			C1569.5,39.6,1532.4,2.6,1486.6,2.6"/>
	</g>
	<g id="g28" transform="translate(365.0225,390.7393)" class="st1">
		<path id="path30" class="st3" d="M1145.8,171.6h118.6c-26.5,76.2-98.6,63.5-98.6,63.5c-58.3-1.1-85.6-48.7-85.6-48.7
			c-48.7-84.7,0-147.1,0-147.1c22.2-39.2,80.5-43.4,80.5-43.4c70.9,0,95.3,52.9,95.3,52.9H1366c-27.6-84.2-106.7-145.1-200.2-145.1
			c-116.3,0-210.6,94.4-210.6,210.7c0,116.3,94.3,210.7,210.6,210.7c116.4,0,210.7-94.4,210.7-210.7c0-7.9-0.5-15.6-1.3-23.3h-229.4
			V171.6z"/>
	</g>
	<g id="g32" transform="translate(165.8066,360.0996)" class="st1">
		<path id="path34" class="st5" d="M383.1,350.2H271v-160h-72.7v160h-115L82.9-62.4h115.4V91.1H271V-62.4h112.1V350.2z M896.5,352.1
			c115.5,0,209.6-96.1,209.5-211.6c0-118-94-209.7-209.5-209.8C781-69.4,722.1,15.6,707.5,49.9c0.1-51.4-50.6-112.2-109.9-112.3
			H406.4V350l178.2,0.1c71.9,0,123-62.2,123.1-115.6C724.2,268,781,352.2,896.5,352.1 M569.7,184.3c16.5,0,29.5,16.3,29.5,34.9
			c0,18.5-13,34.8-29.5,34.8H513v-69.7H569.7z M569.9,29.4c16.5,0,29.5,16.3,29.5,34.8c0,18.5-13,34.8-29.5,34.8h-56.7V29.4H569.9z
			 M645.4,140.6c12.9-1.7,34.6-16.5,42.2-26c-2.7,11.8-2.9,45.8,0.3,57.5C679.2,158.7,658.6,142.2,645.4,140.6 M791.6,140.6
			c0-58,47-105,105-105c58,0,105,46.9,105,105c0,57.9-47,105-105,105C838.6,245.5,791.6,198.5,791.6,140.6 M896.6,223.1
			c45.6,0,82.5-36.9,82.5-82.5C979,95,942.1,58,896.6,58C851,58,814,95,814,140.6C814,186.2,851,223.1,896.6,223.1"/>
	</g>
</g>
<g id="XMLID_2489_" class="st0">
	<path id="XMLID_2490_" class="st6" d="M1374.8,758.9h123.5V247.7h-123.5V758.9z M1158,613.2c0,17.9-15.1,33-33,33h-71.8
		c-17.9,0-33-15.1-33-33c0-7.2,0-206.1,0-206.1H896.7v216.1c0,88.3,56.7,135,140,135h120.6c76.8,0,123.5-55.3,123.5-135V407.1
		h-123.5C1158,407.1,1158,606.7,1158,613.2z M1852.3,407.1c0,0,0,199.6,0,206.1c0,17.9-15.1,33-33,33h-71.8c-17.9,0-33-15.1-33-33
		c0-7.2,0-206.1,0-206.1h-123.5v216.1c0,88.3,56.7,135,140,135h120.6c76.8,0,123.5-55.3,123.5-135V407.1H1852.3z M669.1,407.1
		c0,0-63.9,0-79,0c-28,0-41.6,7.2-41.6,7.2V247.7H425v510.5h122.8V552.9c0-17.9,15.1-33,33-33h71.8c17.9,0,33,15.1,33,33v206.1
		h123.5V536.4C809.1,443,746.6,407.1,669.1,407.1z"/>
</g>
<g id="Prime-Video-Color-White">
	<path id="Clip-6" class="st7" d="M771.5,572.9c0.6-3.6,3.4-6.3,7.4-6.3c1.8,0,3.9,0.6,6.1,2c122.3,76.7,273.6,122.9,429.8,122.9
		c105.4,0,221.3-23.6,327.8-72.3c16.1-7.3,29.5,11.4,13.8,24c-95.1,75.6-232.9,115.8-351.7,115.8c-166.4,0-316.1-66.3-429.6-176.6
		c-2.2-2.2-3.4-4.5-3.7-6.8V572.9z"/>
	<path id="Clip-9" class="st7" d="M1478,584.9c28.1-21.2,65.5-28.3,96.5-28.3c29,0,52.4,6.2,57.4,12.8
		c10.5,13.8-2.7,109.9-53.7,155.6c-7.8,7.1-15.2,3.3-11.8-6c11.5-30.7,37.2-99.7,25-116.4c-12.2-16.8-80.4-8-111-4
		c-4.7,0.6-7.4-1.3-7.8-4.2v-1.6C1472.8,590.3,1474.6,587.4,1478,584.9z"/>
	<path id="Combined-Shape" class="st7" d="M1952.8,489.6c-25,0-44.5-7.6-58.6-22.7c-14.1-15.2-21.1-36.3-21.1-63.4
		c0-26.9,7-47.9,21.1-63.1c14.1-15.2,33.6-22.7,58.6-22.7c25,0,44.5,7.6,58.6,22.7c14.1,15.1,21.1,36.2,21.1,63.1
		c0,27.1-7,48.3-21.1,63.4C1997.3,482.1,1977.8,489.6,1952.8,489.6z M1952.8,454c22.1,0,33.1-16.8,33.1-50.5
		c0-33.5-11-50.2-33.1-50.2c-22.1,0-33.1,16.7-33.1,50.2C1919.7,437.2,1930.7,454,1952.8,454z"/>
	<path class="st7" d="M1779,418c-11.7,0-21.9-1.1-30.5-3.4c1.2,13.9,5.4,23.9,12.5,29.9c7.1,6,17.8,9,32.2,9
		c5.7,0,11.4-0.4,16.8-1.1c5.4-0.7,13-2.3,22.7-4.8c0.6-0.2,1.2-0.4,1.8-0.5c0.6-0.1,1.1-0.2,1.5-0.2c3.5,0,5.2,2.4,5.2,7.2v14.3
		c0,3.3-0.5,5.6-1.4,7c-0.9,1.3-2.7,2.5-5.4,3.6c-15,5.8-31,8.7-47.8,8.7c-25.5,0-45.1-7-58.7-21.2c-13.7-14.1-20.5-34.4-20.5-60.8
		c0-27,7-48.2,21-63.6c14-15.4,33.4-23.1,58.3-23.1c19.1,0,34.1,4.7,44.9,14c10.8,9.4,16.2,21.8,16.2,37.4
		c0,15.6-5.8,27.4-17.4,35.4C1818.8,414,1801.6,418,1779,418z M1783.3,350.7c-19.8,0-31.2,12.3-34.2,36.8c8.2,1.7,17.4,2.5,27.4,2.5
		c10.5,0,18.1-1.6,22.8-4.8c4.7-3.2,7.1-8.1,7.1-14.8C1806.5,357.2,1798.8,350.7,1783.3,350.7z"/>
	<path class="st7" d="M1584.4,488.4c-13.7,0-25.5-3.5-35.6-10.6c-10.1-7.1-17.8-17-23.2-29.6c-5.4-12.6-8-27.2-8-43.7
		c0-26.3,6.2-47.3,18.6-63.1c12.4-15.8,28.8-23.7,49.2-23.7c16.6,0,31,4.8,43.2,14.3v-74.4c0-3,0.6-5,1.9-6.2c1.3-1.2,3.3-1.7,6-1.7
		h30.2c2.9,0,5,0.6,6.1,1.7c1.2,1.2,1.7,3.2,1.7,6.2v219.3c0,2.8-0.6,4.8-1.7,6c-1.2,1.3-3.2,1.9-6.1,1.9h-25.2
		c-2.5,0-4.5-0.5-5.8-1.6c-1.4-1.1-2.4-2.9-3-5.4l-1.9-7.3C1617.6,482.4,1602.2,488.4,1584.4,488.4z M1599.5,453.4
		c10.1,0,19.7-3,29-8.9v-83.9c-9-5.3-19.4-7.9-31.2-7.9c-11.1,0-19.4,4.2-24.9,12.6c-5.5,8.4-8.2,21-8.2,38c0,17,2.9,29.6,8.7,37.8
		C1578.6,449.3,1587.5,453.4,1599.5,453.4z"/>
	<path id="Path" class="st7" d="M1449.2,484.9c-2.7,0-4.7-0.6-6-1.9c-1.3-1.3-1.9-3.3-1.9-6V330.4c0-3,0.6-5,1.9-6.2
		c1.3-1.2,3.3-1.7,6-1.7h30.2c2.9,0,5,0.6,6.1,1.7c1.2,1.2,1.7,3.2,1.7,6.2v146.5c0,2.8-0.6,4.8-1.7,6c-1.2,1.3-3.2,1.9-6.1,1.9
		H1449.2z"/>
	<path class="st7" d="M1464.3,297.3c-8,0-14.4-2.2-19.2-6.7c-4.8-4.5-7.2-10.5-7.2-18.1c0-7.6,2.4-13.7,7.2-18.1
		c4.8-4.5,11.2-6.7,19.2-6.7c8,0,14.4,2.2,19.2,6.7c4.8,4.5,7.2,10.5,7.2,18.1c0,7.6-2.4,13.7-7.2,18.1
		C1478.7,295.1,1472.3,297.3,1464.3,297.3z"/>
	<path id="Clip-12" class="st7" d="M1324.2,484.9c-2.1,0-3.8-0.3-5.2-0.8c-1.4-0.5-2.5-1.4-3.5-2.5c-0.9-1.2-1.8-2.8-2.7-4.9
		L1259,335.2c-0.6-1.7-1.2-3.2-1.6-4.5c-0.4-1.3-0.6-2.4-0.6-3.5c0-3.2,2.1-4.8,6.3-4.8h31.5c3.4,0,5.8,0.6,7.4,1.9
		c1.6,1.3,2.8,3.4,3.6,6.4l32.5,112.5l33.1-112.5c0.8-3,2-5.1,3.6-6.4c1.6-1.3,4-1.9,7.4-1.9h30.6c4.2,0,6.3,1.6,6.3,4.8
		c0,1.1-0.2,2.2-0.6,3.5c-0.4,1.3-0.9,2.8-1.6,4.5L1363,476.6c-0.8,2.1-1.7,3.8-2.7,4.9c-0.9,1.2-2,2-3.3,2.5
		c-1.3,0.5-3,0.8-5.4,0.8H1324.2z"/>
	<path class="st7" d="M1115.3,418.5c-12,0-22.5-1.2-31.3-3.5c1.3,14.2,5.5,24.4,12.8,30.5c7.3,6.1,18.3,9.2,33.1,9.2
		c5.9,0,11.7-0.4,17.3-1.1c5.6-0.7,13.3-2.4,23.3-4.9c0.6-0.2,1.3-0.4,1.9-0.5c0.6-0.1,1.1-0.2,1.6-0.2c3.6,0,5.4,2.4,5.4,7.3v14.6
		c0,3.4-0.5,5.8-1.4,7.2c-1,1.4-2.8,2.6-5.5,3.6c-15.4,5.9-31.8,8.9-49.1,8.9c-26.2,0-46.2-7.2-60.3-21.6c-14-14.4-21-35.1-21-62
		c0-27.6,7.2-49.2,21.5-64.9c14.3-15.7,34.3-23.6,59.8-23.6c19.6,0,35,4.8,46,14.3c11.1,9.5,16.6,22.3,16.6,38.2
		c0,15.9-6,28-17.9,36.1C1156,414.4,1138.5,418.5,1115.3,418.5z M1119.7,349.8c-20.3,0-32,12.5-35.1,37.5c8.4,1.7,17.8,2.5,28.2,2.5
		c10.7,0,18.6-1.6,23.4-4.9c4.9-3.3,7.3-8.3,7.3-15.1C1143.4,356.5,1135.5,349.8,1119.7,349.8z"/>
	<path id="Clip-24" class="st7" d="M810.9,338.1c11.2-7.4,21.3-12.7,30.2-15.7c9-3.1,18.2-4.6,27.7-4.6c19,0,32.4,6.8,40.2,20.4
		c10.7-7.2,20.9-12.4,30.4-15.6c9.5-3.2,19.3-4.8,29.4-4.8c14.8,0,26.2,4.2,34.3,12.4c8.1,8.3,12.2,19.8,12.2,34.7V477
		c0,2.8-0.6,4.8-1.7,6c-1.2,1.3-3.2,1.9-6.2,1.9H977c-2.7,0-4.7-0.6-6-1.9c-1.3-1.3-1.9-3.3-1.9-6V375c0-14.4-6.4-21.6-19.3-21.6
		c-11.4,0-22.9,2.7-34.5,8.3V477c0,2.8-0.6,4.8-1.7,6c-1.2,1.3-3.2,1.9-6.2,1.9H877c-2.7,0-4.7-0.6-6-1.9c-1.3-1.3-1.9-3.3-1.9-6
		V375c0-14.4-6.5-21.6-19.3-21.6c-11.8,0-23.4,2.8-34.8,8.6V477c0,2.8-0.6,4.8-1.7,6c-1.2,1.3-3.2,1.9-6.2,1.9h-30.4
		c-2.7,0-4.7-0.6-6-1.9c-1.3-1.3-1.9-3.3-1.9-6V330.4c0-3,0.6-5,1.9-6.2c1.2-1.2,3.3-1.7,6-1.7h22.8c4.9,0,7.8,2.3,8.9,7
		L810.9,338.1z"/>
	<path class="st7" d="M683.4,330.4c0-3,0.6-5,1.9-6.2c1.3-1.2,3.3-1.8,6-1.8h30.4c3,0,5,0.6,6.2,1.8c1.2,1.2,1.8,3.2,1.8,6.2V477
		c0,2.8-0.6,4.8-1.8,6.1c-1.1,1.3-3.2,1.9-6.2,1.9h-30.4c-2.7,0-4.7-0.6-6-1.9c-1.3-1.3-1.9-3.3-1.9-6.1V330.4z"/>
	<path class="st7" d="M706.5,297.4c-8,0-14.5-2.2-19.3-6.7c-4.9-4.5-7.3-10.5-7.3-18.1c0-7.6,2.4-13.7,7.3-18.1
		c4.9-4.5,11.3-6.7,19.3-6.7c8,0,14.4,2.2,19.3,6.7c4.9,4.4,7.3,10.5,7.3,18.1c0,7.6-2.4,13.7-7.3,18.1
		C721,295.1,714.5,297.4,706.5,297.4z"/>
	<path id="Clip-18" class="st7" d="M600.7,346.6c8.4-9.3,16.4-15.9,23.9-19.9c7.5-3.9,15.4-5.9,23.9-5.9h4.4c3,0,5.1,0.6,6.3,1.7
		c1.3,1.2,1.9,3.2,1.9,6.2v26.7c0,2.8-0.6,4.8-1.7,6.1c-1.1,1.3-3.2,1.9-6.2,1.9c-1.5,0-3.4-0.1-5.7-0.3c-2.3-0.2-5.3-0.3-8.9-0.3
		c-4.9,0-10.7,0.7-17.7,2.1c-7,1.4-12.9,3.1-17.7,5.3V477c0,2.8-0.6,4.8-1.7,6.1c-1.2,1.3-3.2,1.9-6.2,1.9h-30.4
		c-2.7,0-4.7-0.6-6-1.9c-1.3-1.3-1.9-3.3-1.9-6.1V330.4c0-3,0.6-5,1.9-6.2c1.3-1.2,3.3-1.7,6-1.7h22.8c4.9,0,7.8,2.3,8.9,7
		L600.7,346.6z"/>
	<path class="st7" d="M367.5,330.4c0-2.9,0.6-5,1.9-6.2c1.3-1.2,3.3-1.7,6-1.7h22.8c4.9,0,7.8,2.3,8.9,7l2.2,8.3
		c6.3-6.1,14-11,22.9-14.6c9-3.6,18.1-5.4,27.4-5.4c20.4,0,36.6,7.5,48.6,22.6c11.9,15.1,17.9,35.4,17.9,61.1c0,17.6-3,33-8.9,46.1
		c-5.9,13.2-13.9,23.3-24.1,30.4c-10.1,7.1-21.7,10.7-34.8,10.7c-8.6,0-16.9-1.4-24.7-4.1c-7.8-2.8-14.5-6.6-19.9-11.4v69.6
		c0,3-0.6,5-1.7,6.2c-1.2,1.2-3.2,1.7-6.2,1.7h-30.4c-2.7,0-4.7-0.6-6-1.7c-1.3-1.2-1.9-3.2-1.9-6.2V330.4z M444.7,352.7
		c-11,0-21.3,2.9-31,8.6v83.6c9.3,5.7,19.6,8.6,31,8.6c11.8,0,20.5-4,26.1-12.1c5.6-8.1,8.4-20.8,8.4-38.2c0-17.6-2.7-30.4-8.2-38.5
		C465.5,356.7,456.7,352.7,444.7,352.7z"/>
</g>
</svg>
