<?xml version="1.0" encoding="utf-8"?>
<!-- Generator: Adobe Illustrator 23.0.3, SVG Export Plug-In . SVG Version: 6.00 Build 0)  -->
<svg version="1.1" id="Layer_1" xmlns="http://www.w3.org/2000/svg" xmlns:xlink="http://www.w3.org/1999/xlink" x="0px" y="0px"
	 viewBox="0 0 1040.2 289" style="enable-background:new 0 0 1040.2 289;" xml:space="preserve">
<style type="text/css">
	.st0{fill:#F4F4F4;}
	.st1{fill:#FF003D;}
</style>
<path class="st0" d="M22,33.1h57.7l43.8,166l64.5-166h33.4l64.5,166l43.8-166h57.7l-74.3,220.7l-54.7,14.8l-53.8-146.1l-55.3,131.3
	l-54.7,14.8L22,33.1z"/>
<path class="st1" d="M506.9,173.6c-43.8,0-51.8,39.9-51.8,40.2h181.3l-14.8,48.8H398.3v-48.8c0,0,23.7-88.7,108-88.7H553
	c16.6,0,25.1-10.9,25.1-21.9c0-10.6-8.3-21.3-25.1-21.3H403.3l14.8-48.8h135.5c54.4,0,82.2,35.5,82.2,71c0,34.9-27.2,69.5-82.2,69.5
	H506.9z"/>
<path class="st0" d="M648.3,33.1h57.7l43.8,166l64.5-166h33.4l64.5,166l43.8-166h57.7l-74.3,220.7l-54.7,14.8l-53.8-146.1
	l-55.3,131.3l-54.7,14.8L648.3,33.1z"/>
</svg>
